<svg width="18" height="18" viewBox="0 0 18 18" fill="none" xmlns="http://www.w3.org/2000/svg">
<path d="M3.37429 7.31143C3.37429 8.92486 3.89814 10.4153 4.7806 11.6245L0.329605 16.0781C-0.109869 16.5175 -0.109869 17.2311 0.329605 17.6705C0.76908 18.1098 1.48279 18.1098 1.92226 17.6705L6.37326 13.2168C7.58269 14.1026 9.07339 14.6229 10.6871 14.6229C14.7268 14.6229 18 11.3503 18 7.31143C18 3.27257 14.7268 0 10.6871 0C6.64749 0 3.37429 3.27257 3.37429 7.31143ZM10.6871 12.3732C10.0223 12.3732 9.36395 12.2423 8.74971 11.9879C8.13547 11.7335 7.57736 11.3607 7.10724 10.8906C6.63712 10.4206 6.2642 9.8626 6.00977 9.24848C5.75535 8.63436 5.6244 7.97615 5.6244 7.31143C5.6244 6.64671 5.75535 5.9885 6.00977 5.37438C6.2642 4.76026 6.63712 4.20225 7.10724 3.73223C7.57736 3.2622 8.13547 2.88935 8.74971 2.63497C9.36395 2.3806 10.0223 2.24967 10.6871 2.24967C11.352 2.24967 12.0103 2.3806 12.6246 2.63497C13.2388 2.88935 13.7969 3.2622 14.267 3.73223C14.7372 4.20225 15.1101 4.76026 15.3645 5.37438C15.6189 5.9885 15.7499 6.64671 15.7499 7.31143C15.7499 7.97615 15.6189 8.63436 15.3645 9.24848C15.1101 9.8626 14.7372 10.4206 14.267 10.8906C13.7969 11.3607 13.2388 11.7335 12.6246 11.9879C12.0103 12.2423 11.352 12.3732 10.6871 12.3732Z" fill="black"/>
</svg>
